<?xml version="1.0" standalone="no"?>
<!DOCTYPE svg PUBLIC "-//W3C//DTD SVG 20010904//EN"
 "http://www.w3.org/TR/2001/REC-SVG-20010904/DTD/svg10.dtd">
<svg version="1.0" xmlns="http://www.w3.org/2000/svg"
 width="2048.000000pt" height="1264.000000pt" viewBox="0 0 2048.000000 1264.000000"
 preserveAspectRatio="xMidYMid meet">

<g transform="translate(0.000000,1264.000000) scale(0.100000,-0.100000)"
fill="#000000" stroke="none">
<path d="M8580 7180 l0 -1660 1660 0 1660 0 0 1644 c0 904 -3 1651 -6 1660 -6
15 -161 16 -1660 16 l-1654 0 0 -1660z m3250 -5 l0 -1595 -1592 2 -1593 3 -3
1593 -2 1592 1595 0 1595 0 0 -1595z"/>
<path d="M9480 7175 l0 -848 96 7 c163 11 278 62 388 170 76 75 128 174 147
277 23 127 -11 297 -80 399 -42 63 -123 142 -138 135 -8 -2 -12 -1 -8 4 7 12
-52 48 -116 71 l-52 18 30 15 c42 22 91 81 121 146 37 80 38 195 2 265 -59
115 -160 177 -303 184 l-87 4 0 -847z m208 756 c51 -26 115 -99 130 -149 30
-99 4 -201 -70 -275 -55 -55 -100 -77 -158 -77 l-41 0 2 266 1 267 49 -6 c26
-3 65 -15 87 -26z m-17 -575 c126 -27 221 -93 297 -207 70 -103 95 -227 73
-354 -35 -198 -209 -367 -405 -394 -38 -6 -73 -8 -78 -5 -10 6 -11 958 -1 967
10 10 41 8 114 -7z"/>
<path d="M10350 7175 l0 -845 40 0 40 0 0 309 0 308 63 6 c76 7 182 44 240 83
38 27 137 120 163 155 33 45 45 69 38 80 -4 7 -3 9 3 6 16 -10 53 130 53 200
0 84 -16 156 -53 231 -35 71 -143 194 -187 212 -17 7 -30 16 -30 20 0 11 -115
58 -170 70 -25 5 -80 10 -122 10 l-78 0 0 -845z m180 775 c86 -16 169 -63 241
-134 82 -82 126 -167 141 -275 11 -71 10 -88 -9 -164 -20 -81 -61 -157 -119
-223 -66 -74 -221 -144 -319 -144 l-35 0 0 475 0 475 24 0 c13 0 47 -4 76 -10z"/>
<path d="M14472 5192 c-65 -24 -97 -52 -118 -108 -45 -118 24 -204 217 -269
126 -43 180 -90 187 -163 3 -41 0 -52 -22 -79 -34 -40 -83 -57 -168 -56 -90 0
-149 33 -174 98 -15 41 -20 45 -50 45 -39 0 -39 1 -19 -48 34 -81 113 -129
228 -138 127 -11 242 41 277 126 17 42 9 139 -15 173 -28 38 -110 91 -180 115
-91 31 -151 60 -185 88 -25 21 -30 33 -30 68 0 77 54 119 155 120 92 1 143
-25 166 -86 9 -23 17 -28 44 -28 33 0 34 0 23 30 -13 39 -56 82 -105 105 -56
27 -166 30 -231 7z"/>
<path d="M5630 4839 l0 -361 173 4 c165 3 174 5 222 31 69 38 98 84 103 161 3
51 0 66 -20 96 -33 49 -82 79 -141 86 l-51 7 45 13 c127 37 170 179 79 265
-51 48 -100 59 -269 59 l-141 0 0 -361z m310 290 c63 -36 77 -132 26 -187 -37
-42 -70 -52 -161 -52 l-85 0 0 133 0 132 91 -2 c71 -2 99 -7 129 -24z m0 -310
c39 -17 53 -30 70 -63 40 -84 19 -171 -52 -207 -29 -15 -59 -19 -138 -19
l-100 0 0 155 0 155 86 0 c65 0 97 -5 134 -21z"/>
<path d="M6310 4840 l0 -360 45 0 45 0 0 160 0 160 41 0 c69 0 98 -22 166
-128 85 -133 126 -179 173 -193 52 -16 110 -4 110 21 0 15 -7 20 -26 20 -42 0
-76 27 -128 100 -27 38 -53 67 -59 63 -6 -3 -7 -1 -3 6 8 13 -20 63 -58 104
l-25 27 27 6 c124 29 186 155 130 264 -44 86 -113 110 -313 110 l-125 0 0
-360z m287 291 c51 -24 73 -63 73 -131 0 -61 -29 -111 -79 -135 -18 -9 -69
-19 -112 -22 l-79 -6 0 157 0 156 78 0 c54 0 89 -6 119 -19z"/>
<path d="M7040 4840 l0 -360 230 0 c177 0 230 3 231 13 0 6 2 20 4 30 3 16
-11 17 -186 17 l-189 0 0 150 0 150 161 0 160 0 -3 23 c-3 22 -5 22 -153 22
-113 0 -151 3 -155 13 -3 7 -7 64 -9 127 l-3 115 190 0 c176 0 190 1 187 18
-2 9 -4 23 -4 30 -1 9 -54 12 -231 12 l-230 0 0 -360z"/>
<path d="M7860 5171 c-6 -17 -9 -35 -4 -42 4 -8 3 -10 -4 -5 -8 4 -16 -3 -22
-20 -6 -15 -47 -113 -92 -218 -155 -367 -168 -398 -168 -402 0 -2 10 -4 23 -4
19 0 28 15 62 101 22 55 43 103 48 106 10 6 344 6 355 -1 4 -3 28 -50 53 -105
l44 -101 48 0 c26 0 47 2 47 5 0 3 -60 135 -134 293 -73 158 -147 317 -164
355 -26 56 -35 67 -55 67 -18 0 -28 -8 -37 -29z m107 -281 c28 -58 53 -115 57
-127 l7 -23 -154 0 -155 0 76 176 76 177 21 -49 c13 -27 45 -96 72 -154z"/>
<path d="M8180 5170 l0 -30 140 0 140 0 0 -330 0 -330 45 0 45 0 0 330 0 330
134 0 c119 0 134 2 138 18 11 42 11 42 -323 42 l-319 0 0 -30z"/>
<path d="M8970 4840 l0 -360 45 0 45 0 0 180 0 180 215 0 215 0 0 -180 0 -180
45 0 45 0 0 360 0 360 -45 0 -45 0 0 -155 c0 -131 -2 -155 -15 -155 -8 0 -100
0 -205 0 -104 0 -194 0 -200 0 -6 0 -10 58 -10 155 l0 155 -45 0 -45 0 0 -360z"/>
<path d="M9830 4840 l0 -360 230 0 230 0 0 30 0 30 -185 0 -185 0 0 150 0 150
160 0 160 0 0 25 0 25 -160 0 -160 0 0 125 0 125 185 0 185 0 0 30 0 30 -230
0 -230 0 0 -360z"/>
<path d="M10810 4840 l0 -360 46 0 45 0 -3 148 -3 149 91 -5 c115 -6 176 12
233 69 72 72 78 193 14 278 -28 36 -105 76 -129 67 -9 -3 -12 -1 -9 4 4 6 -46
10 -139 10 l-146 0 0 -360z m285 293 c57 -32 94 -116 81 -183 -20 -107 -116
-160 -245 -134 l-31 7 0 166 0 166 87 -5 c49 -3 97 -10 108 -17z"/>
<path d="M11480 4840 l0 -360 45 0 45 0 0 360 0 360 -45 0 -45 0 0 -360z"/>
<path d="M11860 4840 l0 -360 230 0 230 0 0 30 0 30 -185 0 -185 0 0 330 0
330 -45 0 -45 0 0 -360z"/>
<path d="M12625 5063 c-141 -333 -227 -540 -236 -560 -7 -20 -5 -23 14 -23 17
0 26 9 37 38 7 20 28 69 46 109 25 54 37 71 51 68 10 -2 91 -4 181 -4 91 -1
162 -5 162 -10 0 -5 20 -52 45 -105 l46 -96 45 0 c54 0 56 -9 -24 162 -266
569 -257 553 -284 556 -23 3 -28 -7 -83 -135z m179 -225 l45 -98 -156 0 c-143
0 -155 1 -151 18 3 9 36 88 74 175 l69 157 37 -77 c20 -43 57 -122 82 -175z"/>
<path d="M13000 5170 l0 -30 135 0 135 0 0 -330 0 -330 45 0 45 0 0 330 0 330
140 0 140 0 0 30 0 30 -320 0 -320 0 0 -30z"/>
<path d="M13780 4840 l0 -360 230 0 230 0 0 30 0 30 -185 0 -185 0 0 150 0
150 161 0 160 0 -3 23 c-3 22 -6 22 -160 25 l-158 3 0 124 0 125 185 0 185 0
0 30 0 30 -230 0 -230 0 0 -360z"/>
<path d="M9555 4155 c-16 -15 -25 -36 -25 -55 0 -23 -4 -30 -20 -30 -11 0 -20
-4 -20 -10 0 -5 9 -10 20 -10 19 0 20 -7 20 -115 0 -108 1 -115 20 -115 19 0
20 7 22 98 0 53 1 105 0 115 -1 13 6 17 33 17 19 0 35 5 35 10 0 6 -16 10 -35
10 -34 0 -34 1 -29 37 6 49 19 61 45 45 26 -17 46 -5 22 14 -27 21 -61 17 -88
-11z"/>
<path d="M9721 4171 c-19 -12 -6 -41 19 -41 16 0 21 5 18 22 -3 25 -17 32 -37
19z"/>
<path d="M9970 4160 c0 -19 7 -20 95 -20 l94 0 -72 -107 c-114 -167 -137 -203
-137 -208 0 -3 59 -5 130 -5 123 0 130 1 130 20 0 18 -8 20 -100 22 l-100 3
40 60 c22 33 44 65 49 71 5 6 21 30 36 55 15 24 41 60 56 80 16 20 26 39 22
43 -3 3 -60 6 -125 6 -111 0 -118 -1 -118 -20z"/>
<path d="M10306 4164 c-11 -27 -7 -34 19 -32 28 3 35 32 9 42 -21 8 -21 8 -28
-10z"/>
<path d="M9230 3995 l0 -175 115 0 c70 0 115 4 115 10 0 6 -38 10 -95 10 l-95
0 0 75 0 74 77 3 c52 2 78 7 81 16 2 7 -2 13 -9 11 -8 -1 -44 -1 -81 0 l-68 1
0 65 0 65 89 0 c50 0 93 5 96 10 4 6 -35 10 -109 10 l-116 0 0 -175z"/>
<path d="M10450 3995 c0 -168 1 -175 20 -175 17 0 20 7 21 53 1 28 1 55 0 59
-1 11 29 2 47 -14 9 -9 31 -35 47 -57 23 -30 37 -40 59 -41 27 0 28 2 15 18
-110 132 -132 161 -112 149 5 -3 29 14 53 38 25 25 38 45 30 45 -8 0 -43 -28
-77 -62 l-63 -62 0 112 c0 105 -1 112 -20 112 -19 0 -20 -7 -20 -175z"/>
<path d="M10805 4070 c-77 -14 -121 -106 -86 -180 47 -101 188 -106 234 -7 21
43 21 68 3 110 -27 65 -77 90 -151 77z m63 -21 c40 -14 56 -54 50 -126 -6 -65
-30 -93 -82 -93 -62 0 -98 66 -80 148 4 20 8 43 7 50 -1 7 1 11 4 9 2 -3 16 1
31 9 32 17 31 17 70 3z"/>
<path d="M9720 3945 c0 -118 1 -125 20 -125 19 0 20 7 20 125 0 118 -1 125
-20 125 -19 0 -20 -7 -20 -125z"/>
<path d="M10300 3945 l0 -125 25 0 25 0 0 125 0 125 -25 0 -25 0 0 -125z"/>
<path d="M11040 3966 c0 -98 2 -107 25 -132 21 -23 30 -26 66 -21 22 3 49 13
60 23 16 15 19 15 19 2 0 -9 9 -18 20 -21 19 -5 20 0 20 124 0 120 -1 129 -19
129 -17 0 -19 -10 -23 -100 -3 -112 -15 -133 -69 -133 -49 0 -59 22 -59 135 0
91 -1 98 -20 98 -19 0 -20 -7 -20 -104z"/>
<path d="M5630 3995 c0 -13 197 -15 1710 -15 1513 0 1710 2 1710 15 0 13 -197
15 -1710 15 -1513 0 -1710 -2 -1710 -15z"/>
<path d="M11420 3995 c0 -13 197 -15 1710 -15 1513 0 1710 2 1710 15 0 13
-197 15 -1710 15 -1513 0 -1710 -2 -1710 -15z"/>
</g>
</svg>
